# xmcd CD database file
#
# Track frame offsets:
#	150
#	15550
#	33222
#	51990
#	63795
#	79502
#	115483
#	126341
#	138927
#	155235
#	172168
#	199322
#	228798
#	238493
#	272703
#	309441
#
# Disc length: 4455 seconds
#
# Revision: 3
# Processed by: cddbd v1.5.2PL0 Copyright (c) Steve Scherf et al.
# Submitted via: CdAid (MTCDDB.DLL V2003.12.21)
#
DISCID=e1116510
DTITLE=Taste - The Best Of Taste
DYEAR=2000
DGENRE=Rock
TTITLE0=Blister On The Moon
TTITLE1=Born On The Wrong Side Of Town
TTITLE2=Leavin Blues
TTITLE3=Hail
TTITLE4=Same Old Story
TTITLE5=Catfish
TTITLE6=I'm Moving On
TTITLE7=Whats Going On
TTITLE8=Railway And Gun
TTITLE9=Eat My Words
TTITLE10=On The Boards
TTITLE11=It's Happened Before, It'll Happen Again
TTITLE12=If The Day Was Any Longer
TTITLE13=I Feel So Good
TTITLE14=Sugar Mama
TTITLE15=Sinner Boy
EXTD=YEAR: 2000 ID3G:  17
EXTT0=
EXTT1=
EXTT2=
EXTT3=
EXTT4=
EXTT5=
EXTT6=
EXTT7=
EXTT8=
EXTT9=
EXTT10=
EXTT11=
EXTT12=
EXTT13=
EXTT14=
EXTT15=
PLAYORDER=
